<?xml version="1.0" standalone="no"?>
<!DOCTYPE svg PUBLIC "-//W3C//DTD SVG 20010904//EN"
 "http://www.w3.org/TR/2001/REC-SVG-20010904/DTD/svg10.dtd">
<svg version="1.0" xmlns="http://www.w3.org/2000/svg"
 width="6008.000000pt" height="6016.000000pt" viewBox="0 0 6008.000000 6016.000000"
 preserveAspectRatio="xMidYMid meet">
<metadata>
Created by potrace 1.16, written by Peter Selinger 2001-2019
</metadata>
<g transform="translate(0.000000,6016.000000) scale(0.100000,-0.100000)"
fill="#000000" stroke="none">
<path d="M360 59776 l0 -66 16 0 16 0 -6 48 -6 47 10 -20 c5 -11 14 -32 20
-47 l10 -28 9 0 9 0 15 43 15 42 1 -42 1 -43 10 0 10 0 0 65 0 65 -15 0 -15 0
0 -10 c0 -6 -7 -27 -16 -48 l-16 -37 -18 45 -18 45 -16 3 -16 3 0 -65z"/>
<path d="M53967 58633 l-4 -8 101 -131 c55 -72 124 -161 152 -198 l52 -67 6 9
5 9 -140 184 c-78 101 -147 190 -154 197 l-13 14 -5 -9z"/>
<path d="M14248 54154 c-3 -3 53 -66 126 -141 l131 -135 65 -33 65 -32 197
-58 198 -59 7 7 c3 4 4 8 2 10 -2 2 -85 27 -184 56 l-180 52 -81 39 -81 39
-108 113 c-114 119 -149 151 -157 142z"/>
<path d="M16981 48671 c-118 -294 -215 -543 -218 -555 -2 -11 95 224 216 524
122 299 220 549 218 554 -2 5 -99 -230 -216 -523z"/>
<path d="M17470 47089 c-388 -23 -473 -29 -467 -36 3 -2 99 0 214 6 114 6 315
16 446 22 l237 12 0 9 0 8 -52 -1 c-29 -1 -199 -10 -378 -20z"/>
<path d="M55678 46676 c-69 -40 -253 -144 -407 -231 -155 -87 -280 -160 -278
-162 2 -2 139 72 303 165 164 92 347 194 407 226 59 33 107 63 107 68 0 11 8
15 -132 -66z"/>
<path d="M23975 46643 c6 -5 143 -49 305 -98 162 -48 337 -100 388 -115 l92
-28 0 7 c0 4 -172 58 -382 120 -211 63 -390 116 -398 119 l-15 5 10 -10z"/>
<path d="M21716 46491 c5 -5 83 -57 173 -116 l163 -106 -18 -20 -17 -19 7 -7
7 -7 9 14 c5 8 11 19 13 24 l3 10 145 -100 c316 -219 403 -277 494 -329 l95
-54 0 10 0 9 -76 42 c-42 24 -178 113 -303 198 -439 301 -747 500 -695 451z"/>
<path d="M29270 46147 c-8 -7 -16 -19 -18 -27 -2 -8 -57 -104 -123 -214 -66
-109 -118 -202 -117 -206 2 -5 59 86 128 201 69 115 128 209 132 209 4 0 152
-103 330 -228 178 -126 329 -232 337 -237 l14 -8 -7 11 c-3 6 -155 115 -336
243 l-330 233 6 18 c6 21 4 22 -16 5z"/>
<path d="M21213 45572 l-11 -7 106 -182 c97 -167 122 -203 122 -173 0 6 -46
91 -103 190 l-103 178 -11 -6z"/>
<path d="M15161 45126 c-1 -4 -33 -189 -71 -410 l-71 -401 -39 -310 c-22 -170
-42 -322 -45 -337 l-4 -28 9 0 10 0 0 25 c0 14 18 165 40 337 l41 313 70 399
70 399 -5 11 -4 11 -1 -9z"/>
<path d="M17185 44812 c-3 -3 -5 -11 -5 -18 l0 -13 41 -11 c23 -6 125 -22 228
-34 l186 -23 10 8 9 9 -14 13 -15 14 -155 17 c-85 10 -183 24 -217 31 -34 7
-65 10 -68 7z"/>
<path d="M20900 44420 c0 -5 5 -10 10 -10 6 0 108 -11 228 -25 119 -13 264
-29 322 -36 89 -9 288 -46 355 -65 l20 -6 -10 10 -10 10 -99 21 c-122 27 -311
54 -561 81 -104 11 -205 23 -222 26 l-33 5 0 -11z"/>
<path d="M20715 44290 l-18 -19 19 -28 c26 -41 505 -573 515 -573 5 0 -108
131 -251 290 -143 160 -260 295 -260 301 0 6 5 19 10 30 14 24 8 24 -15 -1z"/>
<path d="M58580 44259 c-118 -16 -302 -38 -408 -48 -176 -17 -213 -23 -201
-35 7 -7 280 21 592 60 l297 38 0 8 0 8 -32 -1 c-18 -1 -130 -14 -248 -30z"/>
<path d="M21940 44145 l0 -15 22 0 c12 0 63 -15 113 -34 86 -33 343 -116 358
-116 4 0 7 7 7 15 l0 15 -16 0 c-8 0 -116 34 -239 75 -123 41 -229 75 -235 75
l-10 0 0 -15z"/>
<path d="M21880 43805 c0 -5 22 -34 48 -64 27 -31 87 -108 135 -171 l86 -115
221 -250 c122 -137 227 -252 233 -254 l12 -4 -21 24 c-12 13 -117 132 -234
264 l-211 240 -99 135 c-91 125 -170 216 -170 195z"/>
<path d="M3551 43712 l-194 -37 -5 -13 -4 -12 24 0 c13 0 106 16 208 35 102
19 188 35 193 35 4 0 7 7 7 15 l0 15 -17 -1 c-10 0 -105 -17 -212 -37z"/>
<path d="M24586 43552 l-6 -10 53 -22 c47 -20 115 -60 335 -197 l67 -42 9 9
c12 12 26 2 -159 115 -157 97 -229 136 -272 149 l-21 7 -6 -9z"/>
<path d="M20917 43375 l-17 -12 151 -169 c83 -93 154 -170 158 -172 5 -1 13 3
19 10 l10 13 -152 171 -153 171 -16 -12z"/>
<path d="M31670 43003 c-40 -87 -82 -170 -91 -184 l-18 -26 6 -7 c19 -19 31 0
127 207 l69 148 -10 10 -10 10 -73 -158z"/>
<path d="M37684 42286 l-207 -164 -31 13 c-131 55 -488 211 -519 227 l-39 19
-5 -5 -6 -6 69 -31 c38 -17 168 -74 289 -126 121 -52 222 -98 225 -102 3 -4
12 -8 20 -8 13 -1 345 -141 515 -218 62 -28 808 -352 835 -362 l15 -6 -10 11
c-5 6 -102 51 -215 100 -468 205 -697 304 -902 392 -120 51 -218 95 -218 99 0
3 37 35 83 71 266 210 328 260 319 260 -6 0 -104 -74 -218 -164z"/>
<path d="M40835 40990 l-100 -28 -177 -101 -177 -101 -248 -213 -249 -212
-197 -149 c-108 -82 -195 -151 -193 -153 2 -3 96 64 208 148 l203 152 240 206
239 206 187 106 186 106 92 23 91 24 0 8 c0 4 -1 8 -2 7 -2 0 -48 -13 -103
-29z"/>
<path d="M40005 40492 c-139 -117 -814 -635 -861 -660 l-20 -11 -68 162 c-38
89 -107 235 -153 325 l-85 163 -36 -7 c-21 -4 -46 -11 -57 -15 l-20 -8 55 6
55 5 116 -238 c64 -132 131 -275 149 -319 18 -44 43 -102 55 -130 12 -27 49
-111 81 -185 31 -74 58 -136 59 -138 2 -2 1890 376 1914 384 68 22 -121 -13
-934 -177 -517 -104 -948 -188 -958 -187 l-18 3 -74 170 -74 170 20 14 c11 8
174 129 362 269 l342 255 158 135 c86 73 157 136 157 138 0 14 -31 -9 -165
-124z"/>
<path d="M41787 40400 c-367 -75 -671 -141 -675 -145 l-7 -8 25 6 c14 3 318
65 675 138 358 73 652 134 654 136 2 1 2 5 0 6 -2 2 -304 -58 -672 -133z"/>
<path d="M38762 40420 c-18 -4 -36 -10 -39 -14 l-6 -6 38 3 37 2 34 -60 c53
-95 264 -558 374 -823 23 -56 44 -101 47 -99 5 6 -128 327 -229 552 -78 173
-215 456 -221 454 -1 -1 -17 -5 -35 -9z"/>
<path d="M41970 40400 c-14 -5 -205 -45 -425 -90 -416 -84 -431 -88 -424 -95
3 -2 200 36 439 85 238 49 434 89 435 87 1 -1 21 -96 43 -212 59 -301 109
-535 116 -542 l6 -6 0 21 c0 11 -20 114 -45 229 -71 324 -105 495 -103 511 l3
15 -10 3 c-5 1 -21 -2 -35 -6z"/>
<path d="M41664 39920 c15 -62 74 -345 72 -346 0 0 -106 -22 -233 -49 l-233
-49 0 -8 c0 -11 -19 -14 221 38 116 25 222 47 233 48 12 1 26 5 31 8 6 3 93
22 194 43 102 22 179 41 173 43 -6 2 -91 -13 -188 -33 l-176 -37 -7 10 c-4 6
-22 84 -40 174 l-34 163 -9 10 -9 10 5 -25z"/>
<path d="M42810 39795 c-118 -23 -311 -62 -427 -86 l-213 -44 0 -8 0 -8 18 5
c31 10 442 94 642 132 107 20 197 39 199 41 14 11 -27 5 -219 -32z"/>
<path d="M41698 39530 l-3 -9 -207 -43 c-115 -24 -208 -46 -208 -49 l0 -7 212
44 c116 24 212 43 213 42 1 -2 33 -160 71 -352 l69 -349 3 16 c2 9 -26 164
-63 345 l-66 329 6 15 6 15 -15 6 -15 6 -3 -9z"/>
<path d="M39715 38782 c6 -5 180 -73 388 -151 l378 -140 38 2 39 2 -5 8 -5 8
-28 -6 -28 -6 -373 140 c-206 76 -383 143 -394 147 l-20 7 10 -11z"/>
<path d="M39700 38742 c0 -7 72 -34 569 -217 l193 -72 13 -30 13 -30 17 -7 c9
-3 24 -6 34 -6 l18 0 21 23 22 24 -6 31 -6 32 -9 0 -8 0 5 -30 6 -30 -12 -15
-12 -15 -23 0 -23 0 -11 14 -12 15 3 15 3 16 -95 34 c-108 38 -531 192 -632
230 l-68 26 0 -8z"/>
<path d="M44060 38710 c0 -19 271 -1334 276 -1339 2 -2 4 2 4 10 0 20 -270
1333 -276 1338 -2 2 -4 -2 -4 -9z"/>
<path d="M35601 38696 c7 -7 675 -191 804 -221 33 -8 111 -30 173 -49 61 -19
112 -31 112 -28 0 10 -313 103 -540 161 -108 27 -270 70 -361 95 -152 42 -199
53 -188 42z"/>
<path d="M36397 38413 c-2 -4 -19 -69 -36 -145 l-32 -136 -18 -16 -18 -16
-199 -25 c-109 -14 -215 -28 -234 -31 l-35 -7 10 -3 c6 -2 113 9 239 25 l229
29 18 19 18 18 35 145 c31 132 37 166 23 143z"/>
<path d="M44114 38243 c3 -10 41 -202 86 -427 69 -352 170 -831 187 -889 2
-10 7 -17 9 -14 2 2 -24 136 -60 298 -35 162 -97 464 -137 671 l-74 378 -8 0
-8 0 5 -17z"/>
<path d="M15882 38110 l-64 -9 -79 -26 -79 -27 0 -7 0 -8 78 27 77 28 108 12
109 12 65 -7 65 -7 251 -94 c138 -52 255 -93 260 -91 5 1 -109 47 -254 102
l-264 100 -105 1 -105 2 -63 -8z"/>
<path d="M29670 37949 c0 -5 4 -9 9 -9 6 0 85 -37 178 -83 93 -46 216 -102
273 -125 100 -40 320 -112 343 -112 l11 0 -9 8 c-6 5 -46 19 -90 32 -103 29
-370 132 -460 178 -38 19 -112 54 -162 78 l-93 43 0 -10z"/>
<path d="M58680 37290 c0 -14 60 -420 66 -449 l5 -24 10 10 10 10 -31 209
c-16 115 -32 219 -35 232 l-5 22 -10 0 c-6 0 -10 -4 -10 -10z"/>
<path d="M16128 36734 c-236 -224 -428 -411 -428 -416 0 -6 87 72 193 173 105
102 289 276 407 388 118 113 228 217 245 233 l30 28 -10 0 c-6 0 -202 -183
-437 -406z"/>
<path d="M17903 36533 l-21 -78 -43 -350 -42 -350 -20 -22 -20 -23 10 0 c5 0
17 8 26 18 l15 17 46 365 45 365 20 65 c24 76 23 70 13 70 l-7 0 -22 -77z"/>
<path d="M43475 36158 c-159 -33 -292 -62 -294 -64 -2 -2 -2 -7 2 -10 l6 -6
305 63 306 62 0 9 0 8 -17 -1 c-10 0 -148 -28 -308 -61z"/>
<path d="M42876 36130 l-270 -56 -4 -12 -4 -12 14 5 c7 2 126 27 263 55 138
28 259 54 269 59 l20 7 -10 6 -9 5 -269 -57z"/>
<path d="M28455 35134 c-319 -157 -584 -289 -590 -295 -5 -6 24 5 65 24 91 42
1123 548 1129 553 26 24 -112 -41 -604 -282z"/>
<path d="M32245 34978 l-139 -213 -138 -180 c-75 -98 -135 -181 -133 -184 3
-2 7 -2 8 0 2 2 72 94 156 203 l153 199 124 189 c68 104 124 191 124 194 0 22
-35 -26 -155 -208z"/>
<path d="M33405 35160 c4 -14 9 -32 11 -41 l5 -16 -130 -196 -130 -196 -180
121 c-100 67 -183 119 -186 116 -3 -3 76 -58 175 -124 l180 -119 0 -13 0 -13
9 6 10 5 158 -103 c87 -57 191 -125 231 -150 l72 -47 0 -9 0 -10 15 5 c8 4 15
11 15 16 0 5 41 69 91 142 l90 133 90 62 c96 67 194 117 246 127 l33 6 15 51
c8 28 15 62 14 76 l-1 26 -9 -35 c-5 -19 -14 -51 -19 -71 l-10 -37 -33 -6
c-50 -10 -134 -52 -235 -118 l-94 -62 -91 -135 c-51 -74 -95 -139 -98 -144
l-7 -9 -218 140 c-121 78 -227 147 -236 154 l-17 13 135 203 134 203 -21 37
-20 37 6 -25z"/>
<path d="M32846 34405 l-218 -335 -84 -111 c-82 -108 -94 -127 -74 -114 38 24
611 877 598 890 -3 3 -103 -146 -222 -330z"/>
<path d="M28790 34643 c0 -6 114 -241 253 -524 239 -486 357 -712 379 -725
l10 -6 -17 32 c-9 18 -39 69 -66 115 -27 46 -83 157 -125 247 -68 146 -421
857 -430 867 -2 2 -4 0 -4 -6z"/>
<path d="M30390 34177 c-276 -124 -580 -276 -553 -277 7 0 90 40 185 89 95 49
283 137 418 197 135 59 249 111 255 116 l9 8 -9 0 c-6 -1 -143 -61 -305 -133z"/>
<path d="M1330 34210 c0 -3 55 -16 123 -29 l122 -23 75 -30 c41 -17 96 -42
122 -57 l48 -26 11 -28 12 -28 -6 -92 c-4 -51 -9 -128 -12 -172 -9 -134 4 -70
19 93 l13 153 -6 27 c-3 15 -10 34 -16 43 -14 23 -79 61 -160 94 l-70 28 -137
27 -138 27 0 -7z"/>
<path d="M32503 33699 c3 -9 22 -55 43 -102 l37 -87 -17 -19 -17 -19 -107 -8
-107 -7 28 -9 c31 -11 35 -25 10 -31 l-18 -4 27 -11 26 -11 7 -23 c4 -13 41
-92 82 -176 l75 -154 -6 -15 -6 -15 15 6 15 5 30 -60 31 -60 16 -6 17 -7 40
23 c23 13 63 34 89 48 l49 26 -11 6 c-5 4 -58 105 -117 225 l-108 219 0 33 0
32 -10 -4 -11 -4 -44 103 c-24 56 -49 107 -54 112 l-10 10 6 -16z m124 -286
c8 -21 58 -125 109 -232 52 -107 94 -195 94 -197 0 -1 -34 -21 -75 -44 l-75
-41 -9 5 c-19 12 -261 477 -261 501 0 1 35 5 77 9 l77 6 15 15 c23 22 30 19
48 -22z"/>
<path d="M32669 33523 c10 -21 67 -140 125 -266 l107 -227 -5 -9 -6 -9 15 -6
15 -5 0 8 c0 4 33 23 73 41 100 46 358 182 354 187 -3 2 -98 -44 -212 -102
-115 -58 -211 -105 -215 -105 -3 0 -62 119 -130 265 l-124 265 -8 0 -8 0 19
-37z"/>
<path d="M45873 33156 c-238 -51 -436 -96 -440 -100 l-8 -8 25 6 c14 3 218 47
454 96 237 50 432 93 435 95 10 11 -51 -1 -466 -89z"/>
<path d="M45425 33027 c-247 -49 -452 -92 -454 -94 -2 -1 -2 -5 0 -7 6 -5 906
178 915 187 l7 7 -9 -1 c-5 -1 -211 -42 -459 -92z"/>
<path d="M7840 32919 c0 -22 -9 -220 -21 -441 -11 -220 -18 -402 -16 -405 8
-7 16 113 32 472 8 182 17 349 19 373 l4 42 -9 0 -9 0 0 -41z"/>
<path d="M38656 31832 l-4 -7 209 -99 210 -98 6 6 7 6 -10 8 c-10 10 -398 192
-407 192 -3 0 -8 -3 -11 -8z"/>
<path d="M13564 31490 c3 -19 18 -127 32 -240 26 -216 152 -1031 160 -1039 9
-9 3 35 -60 436 -36 226 -77 511 -92 634 l-27 224 -9 10 -10 10 6 -35z"/>
<path d="M15931 31168 c-1 -10 33 -228 74 -486 41 -258 75 -474 75 -480 0 -7
4 -12 8 -12 l8 0 -77 485 c-43 267 -80 491 -82 498 l-5 12 -1 -17z"/>
<path d="M11598 30743 l-118 -4 0 -10 0 -11 23 5 c12 3 89 7 172 9 l150 3 6
-50 c4 -28 12 -158 18 -290 11 -227 17 -292 26 -284 2 2 -4 142 -14 310 l-18
306 -7 11 -7 12 -57 -2 c-31 -1 -110 -4 -174 -5z"/>
<path d="M52121 30176 c6 -7 920 -58 926 -53 7 7 -99 15 -499 37 -370 21 -434
23 -427 16z"/>
<path d="M13790 30109 c0 -44 99 -753 116 -828 3 -13 7 -21 9 -19 3 3 -11 106
-30 230 -19 123 -45 314 -59 423 -14 109 -28 200 -31 203 -3 3 -5 -1 -5 -9z"/>
<path d="M2500 30021 l0 -8 193 -6 c270 -9 648 -16 612 -11 -28 3 -720 34
-778 34 l-27 0 0 -9z"/>
<path d="M13969 28796 c-2 -2 -200 -14 -439 -26 -239 -13 -437 -24 -439 -26
-2 -2 -2 -5 0 -7 2 -2 193 7 424 19 231 13 429 23 440 23 l20 1 29 -210 29
-210 7 0 7 0 -29 193 c-15 105 -27 203 -25 216 l2 24 -11 4 c-5 2 -12 2 -15
-1z"/>
<path d="M11097 28420 l-358 -18 -7 -7 -7 -8 105 6 c58 4 229 12 380 18 l275
11 25 8 25 8 -40 0 c-22 0 -201 -9 -398 -18z"/>
<path d="M11911 28380 c-1 -89 38 -812 44 -818 l5 -5 0 23 c0 57 -41 836 -45
845 -2 6 -4 -15 -4 -45z"/>
<path d="M10695 28338 c3 -18 12 -202 20 -408 15 -353 21 -428 30 -419 2 3 -5
175 -15 384 -11 209 -20 401 -20 428 l0 47 -9 0 -10 0 4 -32z"/>
<path d="M25200 26894 c-118 -35 -305 -89 -415 -120 -110 -31 -204 -60 -210
-65 l-9 -9 7 0 c16 0 851 241 866 250 l16 9 -20 0 c-11 -1 -117 -30 -235 -65z"/>
<path d="M10523 26613 l-103 -4 0 -15 0 -16 108 6 c59 4 151 9 205 12 l97 6 0
9 0 9 -102 -2 c-57 -1 -149 -4 -205 -5z"/>
<path d="M30520 24061 c-91 -49 -180 -97 -197 -107 l-33 -19 0 -12 c0 -20 12
-16 106 38 49 28 137 76 196 105 l108 54 0 9 c0 6 -4 12 -8 15 l-8 5 -164 -88z"/>
<path d="M30915 23500 c-44 -10 -226 -59 -405 -110 l-325 -92 -10 -10 -10 -11
15 5 c76 26 701 199 753 209 l67 12 0 9 c0 4 -1 8 -2 7 -2 0 -39 -9 -83 -19z"/>
<path d="M30280 23368 c-157 -44 -302 -87 -323 -96 l-39 -16 -40 -59 c-22 -32
-37 -61 -35 -64 3 -3 20 17 38 44 l33 50 33 21 33 22 292 82 c161 44 295 83
297 84 17 14 -38 1 -289 -68z"/>
<path d="M32201 23262 c-1 -6 75 -164 168 -350 92 -185 197 -402 232 -481 l63
-145 57 -99 c32 -55 63 -105 70 -111 l11 -11 -17 34 c-9 18 -37 67 -61 108
-24 42 -71 137 -103 212 -65 152 -420 863 -420 843z"/>
<path d="M11850 22689 l-205 -206 -80 -56 c-44 -30 -99 -75 -121 -99 -34 -35
-185 -239 -322 -435 l-22 -32 8 -5 8 -5 145 202 c169 237 199 271 299 345 108
79 181 142 293 251 101 98 211 226 205 239 -2 4 -95 -86 -208 -199z"/>
<path d="M10215 22705 c5 -11 16 -58 26 -105 l19 -85 9 -195 9 -195 9 -22 c10
-27 154 -203 166 -203 4 0 -20 34 -55 75 -35 42 -72 91 -83 110 l-21 34 -12
215 -13 216 -20 77 -19 77 -12 11 -11 10 8 -20z"/>
<path d="M11162 22042 l-170 -237 -49 -46 c-26 -25 -142 -118 -258 -205 -115
-87 -240 -182 -278 -211 l-67 -52 9 -5 8 -6 284 216 c156 119 301 232 322 252
l39 37 174 242 173 242 -8 6 -9 5 -170 -238z"/>
<path d="M10235 22194 l4 -81 13 -29 c18 -42 209 -270 333 -399 59 -60 103
-103 99 -95 -4 8 -56 67 -115 130 -134 144 -274 313 -300 362 l-19 37 -1 53
c-1 29 -5 64 -10 78 l-9 25 5 -81z"/>
<path d="M9090 21431 l0 -9 88 -12 87 -11 61 -20 62 -20 56 -34 c32 -19 92
-63 134 -98 42 -35 110 -83 151 -107 l75 -45 68 -3 68 -4 0 9 0 10 -66 6 -66
6 -63 36 -63 35 -88 73 c-98 80 -154 116 -233 147 l-52 20 -99 15 c-117 18
-120 18 -120 6z"/>
<path d="M9506 21222 l-5 -9 97 -70 c53 -39 120 -82 147 -95 l50 -25 48 -7 48
-7 29 6 c17 4 30 10 30 13 l0 7 -75 2 -76 2 -57 32 c-31 18 -73 44 -92 59 -19
14 -58 43 -87 63 l-51 38 -6 -9z"/>
<path d="M33022 19085 c8 -8 1261 -245 1266 -240 8 7 -3 10 -638 129 -621 117
-638 120 -628 111z"/>
<path d="M40754 17689 c-16 -17 -60 -55 -99 -83 l-70 -52 -145 -56 -145 -55
-45 -7 c-57 -9 -244 -66 -237 -73 3 -2 54 9 114 25 59 17 124 33 143 37 19 4
99 31 178 61 l143 55 72 53 c76 57 134 112 126 121 -3 3 -19 -9 -35 -26z"/>
<path d="M21625 15915 c-99 -19 -233 -44 -297 -56 l-118 -22 0 -13 c0 -8 4
-14 9 -14 4 0 142 25 306 55 165 30 302 55 307 55 l7 0 -5 15 -6 15 -12 -1
c-6 0 -92 -16 -191 -34z"/>
<path d="M37570 14678 c39 -87 214 -450 223 -465 l8 -13 18 0 18 0 58 -130
c32 -72 60 -128 63 -125 3 2 -22 63 -54 135 l-59 130 -16 0 c-9 0 -21 6 -26
13 -6 6 -63 126 -128 265 -65 138 -122 252 -126 252 l-8 0 29 -62z"/>
<path d="M59760 985 l0 -35 -35 0 -35 0 0 -20 0 -20 35 0 35 0 0 -35 0 -35 20
0 20 0 0 35 0 35 35 0 35 0 0 20 0 20 -35 0 -35 0 0 35 0 35 -20 0 -20 0 0
-35z"/>
</g>
</svg>
